#!OML:ASF E:\motion texture\Top Level 1\Subject 1\Session 1\male.ASF
:FULLY-SPECIFIED
:DEGREES
285
root -7.41946 18.0225 4.3999 140.389 -85.8158 -137.356
lowerback -1.64406 1.87806 0.958559
upperback -0.529204 2.48911 -0.79144
thorax 0.454902 1.24322 -1.29531
lowerneck -13.4673 4.51811 -2.4523
upperneck 29.5456 9.49288 -10.49
head 12.5348 2.22941 -2.26331
rclavicle -3.72721e-014 3.97569e-015
rhumerus -11.4258 17.9639 -92.8311
rradius 87.2719
rwrist -21.8481
rhand -8.36044 -32.1093
rfingers 7.12502
rthumb 17.562 -61.3361
lclavicle -3.72721e-014 3.97569e-015
lhumerus -6.56978 26.0283 81.0233
lradius 49.4258
lwrist 36.2994
lhand -12.4815 32.9081
lfingers 7.12502
lthumb 13.593 62.4443
rfemur -25.3384 -7.30041 23.4707
rtibia 67.9239
rfoot 3.05169 -16.7275
rtoes 9.64851
lfemur -13.018 -6.15663 -17.7193
ltibia 20.3259
lfoot -7.38065 2.81355
ltoes 1.31335
286
root -7.54122 18.0316 4.40661 144.142 -85.7896 -141.173
lowerback -1.62003 1.88691 0.803544
upperback -0.399559 2.50429 -0.756893
thorax 0.566459 1.25222 -1.17108
lowerneck -13.314 4.60386 -2.41443
upperneck 29.7823 9.64439 -10.6404
head 12.6225 2.2623 -2.31756
rclavicle -5.06901e-015 -4.77083e-015
rhumerus -11.2502 19.2279 -93.612
rradius 85.1713
rwrist -23.0452
rhand -7.62554 -32.5246
rfingers 7.12502
rthumb 18.2691 -61.6867
lclavicle -5.06901e-015 -4.77083e-015
lhumerus -5.89238 26.6421 80.868
lradius 47.6888
lwrist 37.3741
lhand -13.0364 34.2212
lfingers 7.12502
lthumb 13.0581 63.7924
rfemur -26.3703 -7.31406 23.3152
rtibia 67.5088
rfoot 2.32335 -16.0841
rtoes 9.25333
lfemur -12.1697 -6.07004 -18.0711
ltibia 19.804
lfoot -7.628 2.99367
ltoes 1.36853
287
root -7.66211 18.0389 4.41364 147.647 -85.755 -144.741
lowerback -1.5761 1.89565 0.658052
upperback -0.272686 2.51924 -0.727824
thorax 0.664567 1.26066 -1.05858
lowerneck -13.1703 4.66441 -2.39873
upperneck 30.0058 9.75382 -10.7502
head 12.7009 2.28068 -2.35825
rclavicle -1.55797e-014 3.18055e-015
rhumerus -11.0331 20.366 -94.2964
rradius 83.0624
rwrist -24.111
rhand -7.16813 -32.9873
rfingers 7.12502
rthumb 18.7091 -62.1076
lclavicle -1.55797e-014 3.18055e-015
lhumerus -5.34866 27.1426 80.7162
lradius 46.2046
lwrist 38.2315
lhand -13.3381 35.2821
lfingers 7.12502
lthumb 12.7672 64.8717
rfemur -27.3549 -7.30807 23.1656
rtibia 66.9268
rfoot 1.53994 -15.4759
rtoes 8.75226
lfemur -11.3235 -5.99422 -18.419
ltibia 19.2726
lfoot -7.87416 3.17601
ltoes 1.38246
288
root -7.78312 18.0443 4.42128 151.064 -85.7064 -148.217
lowerback -1.52552 1.90986 0.520691
upperback -0.141986 2.54132 -0.704722
thorax 0.763552 1.27236 -0.956726
lowerneck -13.0564 4.69881 -2.40787
upperneck 30.2216 9.82431 -10.824
head 12.7768 2.28403 -2.38588
rclavicle -2.95692e-014 1.55052e-014
rhumerus -10.7866 21.3628 -94.8898
rradius 80.985
rwrist -24.8843
rhand -6.94265 -33.4624
rfingers 7.12502
rthumb 18.926 -62.5616
lclavicle -2.95692e-014 1.55052e-014
lhumerus -4.92778 27.53 80.5803
lradius 44.9764
lwrist 38.7911
lhand -13.3655 36.0151
lfingers 7.12502
lthumb 12.7408 65.6064
rfemur -28.2881 -7.27603 23.0113
rtibia 66.1732
rfoot 0.731842 -14.9227
rtoes 8.17306
lfemur -10.4682 -5.94522 -18.774
ltibia 18.7148
lfoot -8.10684 3.39365
ltoes 1.38894
289
root -7.90443 18.0478 4.42979 154.44 -85.6407 -151.64
lowerback -1.47267 1.93168 0.389941
upperback -0.0121848 2.57334 -0.686497
thorax 0.860908 1.28869 -0.863433
lowerneck -12.9788 4.71652 -2.43325
upperneck 30.4378 9.87108 -10.8696
head 12.8568 2.27809 -2.40272
rclavicle 2.88983e-014 2.38542e-015
rhumerus -10.5398 22.211 -95.4048
rradius 78.9772
rwrist -25.2759
rhand -6.92398 -33.8745
rfingers 7.12502
rthumb 18.9439 -62.972
lclavicle 2.88983e-014 2.38542e-015
lhumerus -4.63083 27.8064 80.4685
lradius 44.0099
lwrist 39.0194
lhand -13.2106 36.4146
lfingers 7.12502
lthumb 12.8902 65.9965
rfemur -29.1789 -7.22168 22.8482
rtibia 65.2543
rfoot -0.104975 -14.4256
rtoes 7.42454
lfemur -9.61218 -5.92946 -19.1411
ltibia 18.1307
lfoot -8.32668 3.66021
ltoes 1.37682
290
root -8.02644 18.0496 4.4392 157.755 -85.5668 -154.988
lowerback -1.42712 1.95843 0.262672
upperback 0.117072 2.61179 -0.673704
thorax 0.962155 1.30794 -0.777227
lowerneck -12.9284 4.71601 -2.47355
upperneck 30.6474 9.8929 -10.8977
head 12.9367 2.26181 -2.41326
rclavicle 1.56543e-014 -3.57812e-015
rhumerus -10.3126 22.9038 -95.8501
rradius 77.0873
rwrist -25.3019
rhand -7.03175 -34.2271
rfingers 7.12502
rthumb 18.8403 -63.3347
lclavicle 1.56543e-014 -3.57812e-015
lhumerus -4.46993 27.9612 80.3765
lradius 43.3295
lwrist 38.9335
lhand -12.8665 36.4928
lfingers 7.12502
lthumb 13.2218 66.0535
rfemur -30.0238 -7.16113 22.6722
rtibia 64.1657
rfoot -0.916904 -13.9992
rtoes 6.62201
lfemur -8.76656 -5.94666 -19.5271
ltibia 17.5341
lfoot -8.53458 3.97229
ltoes 1.36026
